<svg xmlns="http://www.w3.org/2000/svg" role="img" viewBox="212.75 82.75 2384.50 2457.00">
  <title>MrShoe Development Logo</title>
  <style>tspan { white-space:pre } .s0 { fill: #5ca4a9 }</style>
  <path id="Layer" fill="#5ca4a9" fill-rule="evenodd" d="M2243.46 565.07c.1.24.19.48.29.72-.14-.15-.28-.3-.42-.44m309.23 783.17c0 632.94-513.12 1146.31-1146.06 1146.31-632.94 0-1146.06-512.64-1146.06-1145.55 0-192.68 47.55-373.19 131.51-532.54l.08 1.45c-4.16 30.94-6.31 63.2-6.31 95.27 0 175.64 64.3 362.77 170.61 464.22-41.72-101.42-64.68-213.17-64.68-329.97.03-346.2 201.91-658.89 494.37-785.7-172.78 126.8-282.46 360.27-282.46 604.51 0 440.9 357.44 792.4 798.36 792.4 440.95 0 798.38-356.88 798.38-797.78 0-104.46-20.05-203.92-56.54-295.35 191.55 204.86 308.81 480.15 308.81 782.72zm-1996.23 29.16c.01.03.02.05.03.08h.05c-.03-.03-.06-.05-.08-.08zM986.01 262.01c.01-.01.02-.02.04-.03h.03l-.06.03zM2191.27 762.8c1.88 20.9 2.87 42.05 2.87 63.45 0 383.89-311.21 695.07-695.15 695.07-383.89 0-695.07-311.18-695.07-695.07 0-376.43 299.21-683 672.75-694.79l1.27-.25c-259.88 59.62-453.7 292.32-453.7 570.25 0 323.1 261.94 585.04 585.06 585.04 301.24 0 549.33-227.65 581.54-520.35l.43-3.35zm-982.21 145.41c.95 2.02 1.91 4.03 2.89 6.04-.36-.24-.73-.49-1.09-.74l-1.8-5.3zm2.89 6.04c93.59 62.96 206.26 104.81 327.51 104.81 272.43 0 501.61-199.09 568.26-427.26 11.74 50.62 18 75.87 18 121.17 0 265.66-215.4 471.91-481.11 471.91-190.17 0-354.54-110.5-432.65-270.63zm895.74-322.59h.08c-.01.05-.03.1-.04.15l-.03-.15z"/>
</svg>
